<svg width="24" height="25" viewBox="0 0 24 25" fill="none" xmlns="http://www.w3.org/2000/svg">
<path d="M12.0001 2.95H12C10.0617 2.95 8.16702 3.52476 6.55542 4.6016C4.94381 5.67844 3.68772 7.20899 2.94598 8.9997C2.20425 10.7904 2.01017 12.7609 2.38831 14.6619C2.76644 16.5629 3.6998 18.3091 5.07036 19.6796C6.44091 21.0502 8.18711 21.9836 10.0881 22.3617C11.9891 22.7398 13.9596 22.5458 15.7503 21.804C17.541 21.0623 19.0716 19.8062 20.1484 18.1946C21.2252 16.583 21.8 14.6883 21.8 12.75V12.7499C21.7973 10.1517 20.7639 7.66062 18.9266 5.82337C17.0894 3.98612 14.5983 2.95274 12.0001 2.95ZM11.9999 20.95C10.3782 20.95 8.7928 20.4691 7.44433 19.5681C6.09585 18.667 5.04483 17.3864 4.42419 15.888C3.80355 14.3897 3.64117 12.7409 3.95756 11.1503C4.27396 9.55962 5.05494 8.09852 6.20173 6.95172C7.34852 5.80493 8.80962 5.02396 10.4003 4.70756C11.9909 4.39116 13.6397 4.55355 15.138 5.17419C16.6364 5.79483 17.917 6.84584 18.8181 8.19432C19.7191 9.54279 20.2 11.1282 20.2 12.7499C20.1975 14.924 19.3328 17.0083 17.7955 18.5455C16.2583 20.0828 14.174 20.9475 11.9999 20.95ZM17.8157 13.3157C17.9657 13.1657 18.05 12.9622 18.05 12.75C18.05 12.5378 17.9657 12.3343 17.8157 12.1843C17.6657 12.0343 17.4622 11.95 17.25 11.95H12.8V7.5C12.8 7.28783 12.7157 7.08434 12.5657 6.93431C12.4157 6.78429 12.2122 6.7 12 6.7C11.7878 6.7 11.5843 6.78429 11.4343 6.93431C11.2843 7.08434 11.2 7.28783 11.2 7.5V12.75C11.2 12.9622 11.2843 13.1657 11.4343 13.3157C11.5843 13.4657 11.7878 13.55 12 13.55H17.25C17.4622 13.55 17.6657 13.4657 17.8157 13.3157Z" fill="black" stroke="black" stroke-width="0.1"/>
</svg>
