<svg width="24" height="25" viewBox="0 0 24 25" fill="none" xmlns="http://www.w3.org/2000/svg">
<path d="M21.5646 12.184L19.5846 10.2039C19.5784 10.1973 19.5721 10.1907 19.5656 10.1843C19.5591 10.1778 19.5526 10.1715 19.5459 10.1653L12.5653 3.1846L12.5652 3.18457C12.4152 3.03476 12.2119 2.95061 11.9999 2.95061C11.7879 2.95061 11.5846 3.03476 11.4346 3.18457L11.4346 3.1846L4.45388 10.1653C4.44723 10.1715 4.44068 10.1778 4.43422 10.1843C4.42777 10.1907 4.42143 10.1973 4.41522 10.2039L2.43516 12.184C2.35687 12.2571 2.29406 12.3452 2.25046 12.4431C2.20673 12.5412 2.18322 12.6471 2.18133 12.7545C2.17943 12.862 2.19919 12.9687 2.23943 13.0683C2.27966 13.1679 2.33955 13.2584 2.41552 13.3343C2.49148 13.4103 2.58197 13.4702 2.68159 13.5104C2.7812 13.5507 2.8879 13.5704 2.99531 13.5685C3.10273 13.5666 3.20866 13.5431 3.3068 13.4994C3.40466 13.4558 3.49276 13.393 3.56588 13.3147L4.19991 12.6807V19.75C4.19991 20.4926 4.49491 21.2047 5.02001 21.7298C5.54511 22.255 6.2573 22.5499 6.99991 22.5499H16.9999C17.7425 22.5499 18.4547 22.255 18.9798 21.7298C19.5049 21.2047 19.7999 20.4926 19.7999 19.75V12.6807L20.4339 13.3147C20.507 13.393 20.5952 13.4558 20.693 13.4994C20.7912 13.5431 20.8971 13.5666 21.0045 13.5685C21.1119 13.5704 21.2186 13.5507 21.3182 13.5104C21.4178 13.4702 21.5083 13.4103 21.5843 13.3343C21.6603 13.2584 21.7202 13.1679 21.7604 13.0683C21.8006 12.9687 21.8204 12.862 21.8185 12.7545C21.8166 12.6471 21.7931 12.5412 21.7494 12.4431C21.7058 12.3452 21.6429 12.2571 21.5646 12.184ZM5.79991 11.0807L11.9999 4.88066L18.1999 11.0807V19.75C18.1999 20.4123 17.6623 20.95 16.9999 20.95H6.99991C6.33752 20.95 5.79991 20.4123 5.79991 19.75V11.0807Z" fill="black" stroke="black" stroke-width="0.1"/>
</svg>
