<svg width="24" height="25" viewBox="0 0 24 25" fill="none" xmlns="http://www.w3.org/2000/svg">
<g clip-path="url(#clip0_55_3597)">
<path fill-rule="evenodd" clip-rule="evenodd" d="M10.0001 3.75C10.0001 3.48478 10.1055 3.23043 10.293 3.04289C10.4805 2.85536 10.7349 2.75 11.0001 2.75H13.0001C13.2653 2.75 13.5197 2.85536 13.7072 3.04289C13.8947 3.23043 14.0001 3.48478 14.0001 3.75V5.07L17.3291 5.624C17.7959 5.70209 18.2199 5.9432 18.5257 6.30446C18.8314 6.66572 18.9992 7.12371 18.9991 7.597V11.029L21.0591 11.715C21.2232 11.7697 21.3741 11.8579 21.5023 11.974C21.6305 12.09 21.7333 12.2314 21.8041 12.3892C21.8748 12.5471 21.9121 12.7178 21.9135 12.8908C21.9149 13.0637 21.8803 13.2351 21.8121 13.394L19.2911 19.277L20.4471 19.856C20.5687 19.9122 20.6777 19.9922 20.7678 20.0913C20.8579 20.1904 20.9271 20.3066 20.9714 20.433C21.0157 20.5594 21.0342 20.6933 21.0257 20.827C21.0173 20.9607 20.9821 21.0913 20.9222 21.211C20.8623 21.3308 20.7789 21.4374 20.6771 21.5243C20.5752 21.6113 20.457 21.6769 20.3293 21.7173C20.2016 21.7577 20.0671 21.772 19.9337 21.7594C19.8004 21.7468 19.671 21.7076 19.5531 21.644L16.8941 20.315C16.6165 20.1763 16.3104 20.1041 16.0001 20.1041C15.6898 20.1041 15.3837 20.1763 15.1061 20.315L13.7891 20.974C13.2336 21.2518 12.6211 21.3964 12.0001 21.3964C11.3791 21.3964 10.7666 21.2518 10.2111 20.974L8.89409 20.315C8.61636 20.1761 8.31011 20.1038 7.99959 20.1038C7.68908 20.1038 7.38282 20.1761 7.10509 20.315L4.44709 21.645C4.20973 21.7636 3.93498 21.783 3.68331 21.6989C3.43164 21.6149 3.22365 21.4344 3.10509 21.197C2.98654 20.9596 2.96714 20.6849 3.05116 20.4332C3.13517 20.1815 3.31573 19.9736 3.55309 19.855L5.38509 18.939L2.28309 13.511C2.19134 13.3504 2.13636 13.1715 2.12212 12.9871C2.10788 12.8027 2.13473 12.6175 2.20073 12.4447C2.26673 12.272 2.37025 12.116 2.50381 11.9881C2.63737 11.8602 2.79765 11.7635 2.97309 11.705L5.00009 11.029V7.597C5 7.12371 5.16775 6.66572 5.47353 6.30446C5.7793 5.9432 6.20329 5.70209 6.67009 5.624L10.0001 5.07V3.75ZM7.25009 18.175C8.1117 18.0106 9.00346 18.1339 9.78809 18.526L11.1041 19.185C11.382 19.324 11.6884 19.3964 11.9991 19.3964C12.3098 19.3964 12.6162 19.324 12.8941 19.185L14.2101 18.526C14.7166 18.2728 15.271 18.13 15.8368 18.1071C16.4026 18.0841 16.9668 18.1816 17.4921 18.393L19.6521 12.8908L12.0001 9.91856L4.47309 12.8908L7.25009 18.175ZM17.0001 10.363V7.597L11.9991 6.30446L7.00009 7.597V10.363L11.3671 8.907C11.7777 8.77014 12.2215 8.77014 12.6321 8.907L17.0001 10.363Z" fill="black"/>
</g>
<defs>
<clipPath id="clip0_55_3597">
<rect width="24" height="24" fill="white" transform="translate(0 0.75)"/>
</clipPath>
</defs>
</svg>
