<svg width="24" height="25" viewBox="0 0 24 25" fill="none" xmlns="http://www.w3.org/2000/svg">
<path d="M16.525 4.25H19C19.2652 4.25 19.5196 4.35536 19.7071 4.54289C19.8946 4.73043 20 4.98478 20 5.25V21.75C20 22.0152 19.8946 22.2696 19.7071 22.4571C19.5196 22.6446 19.2652 22.75 19 22.75H5C4.73478 22.75 4.48043 22.6446 4.29289 22.4571C4.10536 22.2696 4 22.0152 4 21.75V5.25C4 4.98478 4.10536 4.73043 4.29289 4.54289C4.48043 4.35536 4.73478 4.25 5 4.25H8.5V5.75H15.5V4.25H16.525Z" stroke="black" stroke-width="1.6" stroke-linejoin="round"/>
<path d="M13.5 10.25L9.5 14.2505H14.502L10.5 18.2505M8.5 2.75H15.5V5.75H8.5V2.75Z" stroke="black" stroke-width="1.6" stroke-linecap="round" stroke-linejoin="round"/>
</svg>
