<svg width="24" height="25" viewBox="0 0 24 25" fill="none" xmlns="http://www.w3.org/2000/svg">
<path d="M4 4.75V20.75C4 21.2804 4.21071 21.7891 4.58579 22.1642C4.96086 22.5393 5.46957 22.75 6 22.75H18C18.5304 22.75 19.0391 22.5393 19.4142 22.1642C19.7893 21.7891 20 21.2804 20 20.75V9.092C20 8.82556 19.9467 8.56181 19.8433 8.31624C19.7399 8.07068 19.5885 7.84824 19.398 7.662L14.958 3.32C14.5844 2.95466 14.0826 2.75007 13.56 2.75H6C5.46957 2.75 4.96086 2.96071 4.58579 3.33579C4.21071 3.71086 4 4.21957 4 4.75Z" stroke="black" stroke-width="1.8" stroke-linecap="round" stroke-linejoin="round"/>
<path d="M14 2.75V6.75C14 7.28043 14.2107 7.78914 14.5858 8.16421C14.9609 8.53929 15.4696 8.75 16 8.75H20" stroke="black" stroke-width="1.8" stroke-linejoin="round"/>
</svg>
