<svg width="24" height="25" viewBox="0 0 24 25" fill="none" xmlns="http://www.w3.org/2000/svg">
<path d="M22.95 14.85C22.8712 14.9091 22.7816 14.9521 22.6862 14.9766C22.5908 15.001 22.4915 15.0064 22.394 14.9925C22.2965 14.9786 22.2027 14.9456 22.1179 14.8954C22.0332 14.8452 21.9591 14.7788 21.9 14.7C21.448 14.0924 20.8596 13.5994 20.1822 13.2607C19.5048 12.922 18.7574 12.7471 18 12.75C17.8526 12.75 17.7083 12.7065 17.5855 12.625C17.4626 12.5435 17.3664 12.4275 17.3091 12.2916C17.2702 12.1993 17.2501 12.1002 17.2501 12C17.2501 11.8999 17.2702 11.8008 17.3091 11.7085C17.3664 11.5726 17.4626 11.4566 17.5855 11.3751C17.7083 11.2936 17.8526 11.2501 18 11.25C18.4209 11.25 18.8332 11.132 19.1903 10.9093C19.5474 10.6866 19.8349 10.3683 20.0201 9.99046C20.2054 9.6126 20.2809 9.19037 20.2382 8.77173C20.1955 8.35308 20.0363 7.9548 19.7786 7.62213C19.5208 7.28946 19.175 7.03572 18.7803 6.88975C18.3856 6.74378 17.9579 6.71141 17.5458 6.79634C17.1336 6.88127 16.7535 7.08008 16.4487 7.37019C16.1439 7.6603 15.9265 8.03009 15.8213 8.43754C15.7967 8.53296 15.7535 8.62259 15.6942 8.70132C15.635 8.78004 15.5608 8.84633 15.4759 8.89639C15.391 8.94644 15.2971 8.97929 15.1995 8.99305C15.102 9.00682 15.0026 9.00123 14.9072 8.97661C14.8118 8.95198 14.7222 8.90881 14.6435 8.84955C14.5647 8.79029 14.4984 8.7161 14.4484 8.63122C14.3983 8.54634 14.3655 8.45243 14.3517 8.35486C14.338 8.25729 14.3435 8.15796 14.3682 8.06254C14.5142 7.49753 14.7901 6.97439 15.1738 6.53475C15.5576 6.09511 16.0387 5.75111 16.5788 5.53012C17.119 5.30913 17.7032 5.21725 18.2851 5.26179C18.867 5.30633 19.4304 5.48606 19.9306 5.78668C20.4308 6.0873 20.8539 6.50051 21.1663 6.99344C21.4787 7.48636 21.6718 8.0454 21.7301 8.62605C21.7884 9.20671 21.7104 9.79297 21.5023 10.3382C21.2942 10.8834 20.9617 11.3725 20.5313 11.7666C21.5511 12.2082 22.4377 12.9089 23.1028 13.7991C23.1619 13.8781 23.2049 13.968 23.2292 14.0636C23.2535 14.1592 23.2587 14.2587 23.2445 14.3563C23.2303 14.4539 23.197 14.5478 23.1465 14.6325C23.0959 14.7172 23.0292 14.7912 22.95 14.85ZM17.8988 20.625C17.9531 20.7104 17.9895 20.8059 18.0059 20.9057C18.0223 21.0055 18.0184 21.1076 17.9943 21.2058C17.9703 21.3041 17.9266 21.3964 17.8659 21.4774C17.8052 21.5583 17.7288 21.6261 17.6412 21.6767C17.5536 21.7273 17.4567 21.7597 17.3563 21.7719C17.2559 21.7841 17.154 21.7759 17.0569 21.7477C16.9597 21.7195 16.8693 21.672 16.791 21.6079C16.7127 21.5439 16.6482 21.4647 16.6013 21.375C16.1288 20.575 15.456 19.9121 14.6491 19.4515C13.8422 18.9909 12.9291 18.7487 12 18.7487C11.0709 18.7487 10.1579 18.9909 9.35101 19.4515C8.54412 19.9121 7.87124 20.575 7.39879 21.375C7.3519 21.4647 7.28737 21.5439 7.20907 21.6079C7.13078 21.672 7.04034 21.7195 6.94319 21.7477C6.84604 21.7759 6.7442 21.7841 6.64379 21.7719C6.54337 21.7597 6.44647 21.7273 6.35889 21.6767C6.27132 21.6261 6.19489 21.5583 6.1342 21.4774C6.07351 21.3964 6.02982 21.3041 6.00576 21.2058C5.98169 21.1076 5.97775 21.0055 5.99417 20.9057C6.01058 20.8059 6.04702 20.7104 6.10129 20.625C6.82841 19.3757 7.93709 18.3926 9.26441 17.82C8.51753 17.2482 7.96863 16.4567 7.69485 15.5568C7.42107 14.6568 7.43619 13.6937 7.73808 12.8028C8.03997 11.9119 8.61345 11.138 9.37791 10.5899C10.1424 10.0418 11.0594 9.74704 12 9.74704C12.9407 9.74704 13.8577 10.0418 14.6222 10.5899C15.3866 11.138 15.9601 11.9119 16.262 12.8028C16.5639 13.6937 16.579 14.6568 16.3052 15.5568C16.0314 16.4567 15.4825 17.2482 14.7357 17.82C16.063 18.3926 17.1717 19.3757 17.8988 20.625ZM12 17.25C12.5934 17.25 13.1734 17.0741 13.6667 16.7445C14.1601 16.4148 14.5446 15.9463 14.7717 15.3981C14.9987 14.8499 15.0581 14.2467 14.9424 13.6648C14.8266 13.0828 14.5409 12.5483 14.1214 12.1287C13.7018 11.7092 13.1673 11.4234 12.5853 11.3077C12.0034 11.1919 11.4002 11.2513 10.852 11.4784C10.3038 11.7055 9.83527 12.09 9.50563 12.5833C9.17598 13.0767 9.00004 13.6567 9.00004 14.25C9.00004 15.0457 9.31611 15.8088 9.87872 16.3714C10.4413 16.934 11.2044 17.25 12 17.25ZM6.75004 12C6.75004 11.8011 6.67102 11.6104 6.53037 11.4697C6.38971 11.3291 6.19895 11.25 6.00004 11.25C5.57922 11.25 5.16685 11.132 4.80976 10.9093C4.45267 10.6866 4.16518 10.3683 3.97994 9.99046C3.7947 9.6126 3.71915 9.19037 3.76185 8.77173C3.80455 8.35308 3.9638 7.9548 4.22151 7.62213C4.47922 7.28946 4.82507 7.03572 5.21976 6.88975C5.61444 6.74378 6.04216 6.71141 6.45432 6.79634C6.86648 6.88127 7.24656 7.08008 7.55139 7.37019C7.85622 7.6603 8.07358 8.03009 8.17879 8.43754C8.22851 8.63024 8.35275 8.79529 8.52417 8.89639C8.69559 8.99748 8.90015 9.02634 9.09285 8.97661C9.28555 8.92688 9.4506 8.80264 9.55169 8.63122C9.65278 8.4598 9.68164 8.25524 9.63191 8.06254C9.48589 7.49753 9.21001 6.97439 8.82623 6.53475C8.44246 6.09511 7.96136 5.75111 7.42124 5.53012C6.88112 5.30913 6.29688 5.21725 5.715 5.26179C5.13312 5.30633 4.56966 5.48606 4.06947 5.78668C3.56927 6.0873 3.14614 6.50051 2.83374 6.99344C2.52135 7.48636 2.3283 8.0454 2.26998 8.62605C2.21165 9.20671 2.28965 9.79297 2.49777 10.3382C2.70588 10.8834 3.03838 11.3725 3.46879 11.7666C2.44999 12.2086 1.56446 12.9093 0.900037 13.7991C0.840881 13.8779 0.797823 13.9676 0.773323 14.063C0.748822 14.1584 0.743358 14.2578 0.757244 14.3553C0.771129 14.4529 0.804091 14.5467 0.854248 14.6315C0.904406 14.7163 0.970775 14.7904 1.04957 14.8496C1.12836 14.9087 1.21803 14.9518 1.31347 14.9763C1.4089 15.0008 1.50823 15.0063 1.60577 14.9924C1.70332 14.9785 1.79717 14.9455 1.88198 14.8954C1.96678 14.8452 2.04088 14.7788 2.10004 14.7C2.55209 14.0924 3.14049 13.5994 3.81787 13.2607C4.49526 12.922 5.2427 12.7471 6.00004 12.75C6.19895 12.75 6.38971 12.671 6.53037 12.5304C6.67102 12.3897 6.75004 12.199 6.75004 12Z" fill="black"/>
</svg>
