<svg width="24" height="25" viewBox="0 0 24 25" fill="none" xmlns="http://www.w3.org/2000/svg">
<path d="M21.4941 21.3264C20.0918 18.9027 17.9502 17.1457 15.4459 16.2734C16.6469 15.5065 17.5805 14.383 18.1139 13.0578C18.6741 11.6662 18.7619 10.1293 18.364 8.68292C17.9661 7.23658 17.1044 5.96084 15.9112 5.05163C14.7181 4.14242 13.2595 3.65 11.7594 3.65C10.2593 3.65 8.80071 4.14242 7.60757 5.05163C6.41443 5.96084 5.55273 7.23658 5.15481 8.68292C4.75689 10.1293 4.84474 11.6662 5.40488 13.0578C5.93828 14.383 6.87185 15.5065 8.07281 16.2733C5.56859 17.1448 3.42696 18.9018 2.02471 21.3264M21.4941 21.3264L2.02541 21.3253C2.02518 21.3257 2.02495 21.326 2.02471 21.3264M21.4941 21.3264C21.553 21.4228 21.5922 21.5301 21.6092 21.6419C21.6262 21.7541 21.6206 21.8686 21.5927 21.9787C21.5648 22.0887 21.5152 22.192 21.4467 22.2825C21.3782 22.373 21.2923 22.4489 21.194 22.5057C21.0957 22.5625 20.987 22.599 20.8744 22.6131C20.7618 22.6272 20.6474 22.6186 20.5382 22.5878C20.4289 22.557 20.327 22.5046 20.2383 22.4338C20.15 22.3632 20.0766 22.2758 20.0225 22.1765M2.02471 21.3264C1.96576 21.4229 1.92664 21.5301 1.90965 21.6419C1.8926 21.7541 1.89819 21.8686 1.9261 21.9787C1.95401 22.0887 2.00367 22.192 2.07215 22.2825C2.14064 22.373 2.22656 22.4489 2.32485 22.5057C2.42314 22.5625 2.53181 22.599 2.64443 22.6131C2.75706 22.6272 2.87137 22.6186 2.98062 22.5878C3.08987 22.557 3.19185 22.5046 3.28053 22.4338C3.36885 22.3632 3.4422 22.2757 3.4963 22.1765C5.2452 19.1549 8.33415 17.3526 11.7594 17.3526C15.1847 17.3526 18.2736 19.1549 20.0225 22.1765M2.02471 21.3264L20.0225 22.1765" fill="black" stroke="black" stroke-width="0.2"/>
</svg>
