<svg width="24" height="25" viewBox="0 0 24 25" fill="none" xmlns="http://www.w3.org/2000/svg">
<path d="M15 5.75003L19 9.75003M17 3.75003C17.2547 3.44906 17.5697 3.20408 17.925 3.03071C18.2803 2.85733 18.6681 2.75936 19.0636 2.74304C19.4592 2.72672 19.8538 2.79241 20.2224 2.93591C20.5909 3.07942 20.9254 3.2976 21.2043 3.57655C21.4833 3.85549 21.7006 4.18909 21.8425 4.55607C21.9845 4.92305 22.0478 5.31536 22.0286 5.70801C22.0094 6.10065 21.908 6.48501 21.7309 6.83659C21.5538 7.18817 21.3049 7.49926 21 7.75003L7.5 21.25L2 22.75L3.5 17.25L17 3.75003Z" stroke="black" stroke-width="1.6" stroke-linecap="round" stroke-linejoin="round"/>
</svg>
