<svg width="18" height="14" viewBox="0 0 18 14" fill="none" xmlns="http://www.w3.org/2000/svg">
<path d="M1.49951 0.75C1.69842 0.75 1.88919 0.829018 2.02984 0.96967C2.17049 1.11032 2.24951 1.30109 2.24951 1.5L2.24951 12.5C2.24951 12.6989 2.17049 12.8897 2.02984 13.0303C1.88919 13.171 1.69842 13.25 1.49951 13.25C1.3006 13.25 1.10983 13.171 0.969182 13.0303C0.828529 12.8897 0.749512 12.6989 0.749512 12.5L0.749512 1.5C0.749512 1.30109 0.828529 1.11032 0.969182 0.96967C1.10983 0.829018 1.3006 0.75 1.49951 0.75ZM3.74951 7C3.74951 6.80109 3.82853 6.61032 3.96918 6.46967C4.10983 6.32902 4.3006 6.25 4.49951 6.25L14.6895 6.25L11.9695 3.53C11.837 3.38783 11.7649 3.19978 11.7683 3.00548C11.7718 2.81118 11.8505 2.62579 11.9879 2.48838C12.1253 2.35097 12.3107 2.27225 12.505 2.26883C12.6993 2.2654 12.8873 2.33752 13.0295 2.47L17.0265 6.466C17.0913 6.53055 17.1441 6.60605 17.1825 6.689C17.2467 6.82878 17.2661 6.98494 17.2382 7.13618C17.2103 7.28741 17.1363 7.42634 17.0265 7.534L13.0295 11.53C12.9608 11.6037 12.878 11.6628 12.786 11.7038C12.6941 11.7448 12.5947 11.7668 12.494 11.7686C12.3933 11.7704 12.2933 11.7518 12.1999 11.7141C12.1065 11.6764 12.0217 11.6203 11.9505 11.549C11.8793 11.4778 11.8231 11.393 11.7854 11.2996C11.7477 11.2062 11.7291 11.1062 11.7309 11.0055C11.7327 10.9048 11.7547 10.8055 11.7957 10.7135C11.8367 10.6215 11.8958 10.5387 11.9695 10.47L14.6895 7.75L4.49951 7.75C4.3006 7.75 4.10983 7.67098 3.96918 7.53033C3.82853 7.38968 3.74951 7.19891 3.74951 7Z" fill="black"/>
</svg>
