<svg width="32" height="32" viewBox="0 0 32 32" fill="none" xmlns="http://www.w3.org/2000/svg">
<path d="M28.9467 27.0535L24 22.1468C25.9201 19.7527 26.85 16.7138 26.5984 13.6552C26.3468 10.5965 24.9329 7.75049 22.6474 5.70231C20.3618 3.65412 17.3784 2.55946 14.3106 2.64341C11.2427 2.72736 8.32362 3.98353 6.15352 6.15364C3.98341 8.32375 2.72724 11.2428 2.64329 14.3107C2.55934 17.3785 3.654 20.3619 5.70219 22.6475C7.75037 24.933 10.5964 26.3469 13.6551 26.5985C16.7137 26.8501 19.7525 25.9202 22.1467 24.0001L27.0533 28.9068C27.1773 29.0318 27.3247 29.1309 27.4872 29.1986C27.6497 29.2663 27.824 29.3012 28 29.3012C28.176 29.3012 28.3503 29.2663 28.5128 29.1986C28.6752 29.1309 28.8227 29.0318 28.9467 28.9068C29.187 28.6582 29.3213 28.3259 29.3213 27.9801C29.3213 27.6343 29.187 27.3021 28.9467 27.0535ZM14.6667 24.0001C12.8207 24.0001 11.0162 23.4527 9.48134 22.4272C7.94648 21.4016 6.7502 19.9439 6.04379 18.2385C5.33737 16.5331 5.15254 14.6564 5.51267 12.8459C5.87279 11.0355 6.76171 9.37241 8.067 8.06712C9.37229 6.76183 11.0353 5.87292 12.8458 5.51279C14.6563 5.15266 16.5329 5.33749 18.2384 6.04391C19.9438 6.75033 21.4015 7.9466 22.427 9.48146C23.4526 11.0163 24 12.8208 24 14.6668C24 17.1421 23.0167 19.5161 21.2663 21.2664C19.516 23.0168 17.142 24.0001 14.6667 24.0001Z" fill="black"/>
</svg>
